<svg width="192" height="192" version="1.1" xmlns="http://www.w3.org/2000/svg" desc="Created with imagetracer.js version 1.2.6" ><path fill="rgb(239,201,198)" stroke="rgb(239,201,198)" stroke-width="1" opacity="1" d="M 82.5 48 L 85 48.5 L 82.5 49 L 82.5 48 Z " /><path fill="rgb(239,201,198)" stroke="rgb(239,201,198)" stroke-width="1" opacity="1" d="M 107.5 48 L 110 48.5 L 107.5 49 L 107.5 48 Z " /><path fill="rgb(239,201,198)" stroke="rgb(239,201,198)" stroke-width="1" opacity="1" d="M 83.5 52 L 86 52.5 L 82.5 54 L 83.5 52 Z " /><path fill="rgb(239,201,198)" stroke="rgb(239,201,198)" stroke-width="1" opacity="1" d="M 106.5 52 L 110 53.5 L 108.5 53 Q 105.5 53.5 106.5 52 Z " /><path fill="rgb(239,201,198)" stroke="rgb(239,201,198)" stroke-width="1" opacity="1" d="M 87.5 53 L 105 53.5 L 87.5 54 L 87.5 53 Z " /><path fill="rgb(239,201,198)" stroke="rgb(239,201,198)" stroke-width="1" opacity="1" d="M 49.5 60 L 79 60.5 L 49.5 61 L 49.5 60 Z " /><path fill="rgb(239,201,198)" stroke="rgb(239,201,198)" stroke-width="1" opacity="1" d="M 82.5 60 L 110 60.5 L 82.5 61 L 82.5 60 Z " /><path fill="rgb(239,201,198)" stroke="rgb(239,201,198)" stroke-width="1" opacity="1" d="M 113.5 60 L 143 60.5 L 113.5 61 L 113.5 60 Z " /><path fill="rgb(239,201,198)" stroke="rgb(239,201,198)" stroke-width="1" opacity="1" d="M 46.5 61 L 47 62.5 L 45 63.5 L 46.5 61 Z " /><path fill="rgb(239,201,198)" stroke="rgb(239,201,198)" stroke-width="1" opacity="1" d="M 145.5 61 L 147 63.5 L 145 62.5 L 145.5 61 Z " /><path fill="rgb(239,201,198)" stroke="rgb(239,201,198)" stroke-width="1" opacity="1" d="M 89 79 L 91 79.5 L 91 89 Q 88 91 80.5 90 L 80.5 89 L 89 89 L 89 79 Z " /><path fill="rgb(239,201,198)" stroke="rgb(239,201,198)" stroke-width="1" opacity="1" d="M 101 79 L 103 79.5 L 103 89 L 111.5 89 L 111.5 90 Q 104 91 101 89 L 101 79 Z " /><path fill="rgb(239,201,198)" stroke="rgb(239,201,198)" stroke-width="1" opacity="1" d="M 80.5 101 Q 88 100 91 102 L 91 111.5 L 89 112 L 89 102 L 80.5 102 L 80.5 101 Z " /><path fill="rgb(239,201,198)" stroke="rgb(239,201,198)" stroke-width="1" opacity="1" d="M 103.5 101 L 112 101.5 L 103 102 L 103 111.5 L 101 112 L 101 102.5 L 102.5 102 L 103.5 101 Z " /><path fill="rgb(255,255,255)" stroke="rgb(255,255,255)" stroke-width="1" opacity="1" d="M 0 0 L 192 0 L 192 192 L 0 192 L 0 0 Z M 87 47 L 83 48 Q 77 51 79 60 L 50 60 L 46 61 L 45 64 L 45 129 L 48 131 L 145 131 L 147 129 L 147 64 L 146 61 L 143 60 L 113 60 Q 115 53 111 50 L 106 47 L 87 47 Z " /><path fill="rgb(255,255,255)" stroke="rgb(255,255,255)" stroke-width="1" opacity="1" d="M 83.5 53 Q 91.8 55.7 104.5 54 L 108.5 53 Q 111.5 54.6 110 60 L 82.5 60 Q 81.4 59.9 82 54.5 L 83.5 53 Z " /><path fill="rgb(255,255,255)" stroke="rgb(255,255,255)" stroke-width="1" opacity="1" d="M 91 79 L 101 79 L 101 88.5 L 102.5 89 L 103.5 90 L 112 90 L 112 101 L 103.5 101 L 101 102 L 101 112 L 91 112 L 91 102.5 L 89.5 102 L 88.5 101 L 80 101 L 80 90 L 88.5 90 L 91 89 L 91 79 Z " /><path fill="rgb(198,120,63)" stroke="rgb(198,120,63)" stroke-width="1" opacity="1" d="M 86.5 47 L 105.5 47 L 107 48.5 Q 107.8 52.3 105.5 53 L 86.5 53 L 85 51.5 Q 84.3 47.8 86.5 47 Z " /><path fill="rgb(198,120,63)" stroke="rgb(198,120,63)" stroke-width="1" opacity="1" d="M 81.5 49 L 82 50.5 L 80 51.5 L 81.5 49 Z " /><path fill="rgb(198,120,63)" stroke="rgb(198,120,63)" stroke-width="1" opacity="1" d="M 110.5 49 L 112 51.5 L 110 50.5 L 110.5 49 Z " /><path fill="rgb(198,120,63)" stroke="rgb(198,120,63)" stroke-width="1" opacity="1" d="M 112.5 53 L 113 60.5 L 112 60.5 L 112.5 53 Z " /><path fill="rgb(198,120,63)" stroke="rgb(198,120,63)" stroke-width="1" opacity="1" d="M 79.5 54 L 80 60.5 L 79 60.5 L 79.5 54 Z " /><path fill="rgb(198,120,63)" stroke="rgb(198,120,63)" stroke-width="1" opacity="1" d="M 89.5 78 L 101 78.5 L 89.5 79 L 89.5 78 Z " /><path fill="rgb(198,120,63)" stroke="rgb(198,120,63)" stroke-width="1" opacity="1" d="M 79.5 89 L 80 101.5 L 79 101.5 L 79.5 89 Z " /><path fill="rgb(198,120,63)" stroke="rgb(198,120,63)" stroke-width="1" opacity="1" d="M 112.5 89 L 113 101.5 L 112 101.5 L 112.5 89 Z " /><path fill="rgb(198,120,63)" stroke="rgb(198,120,63)" stroke-width="1" opacity="1" d="M 89.5 112 L 101 112.5 L 89.5 113 L 89.5 112 Z " /><path fill="rgb(188,38,38)" stroke="rgb(188,38,38)" stroke-width="1" opacity="1" d="M 97 61 L 142.5 61 L 143 63 Q 146.8 61.5 146 64.5 L 147 65.5 L 147 125.5 L 144.5 130 L 141.5 131 L 97 131 L 97 113 L 103 113 L 103 102 L 113 102 L 113 89 L 103 89 L 103 78 L 97.5 78 L 97 77.5 L 97 61 Z " /><path fill="rgb(209,59,60)" stroke="rgb(209,59,60)" stroke-width="1" opacity="1" d="M 82 49 Q 86.5 47.5 85 52 L 82 52 L 82 61 L 97 61 L 97 78 L 89 78 L 89 89 L 79 89 L 79 102 L 89 102 L 89 113 L 97 113 L 97 131 L 49.5 131 L 46 128.5 L 45 125.5 L 45 65.5 L 47 61 L 79.5 61 L 80 60.5 L 80 52.5 L 82 49 Z " /><path fill="rgb(209,59,60)" stroke="rgb(209,59,60)" stroke-width="1" opacity="1" d="M 107 49 Q 110.7 47.5 110 50.5 L 112 52.5 L 112 61 L 110 60.5 L 110 53.5 L 107 52 L 107 49 Z " /><path fill="rgb(209,59,60)" stroke="rgb(209,59,60)" stroke-width="1" opacity="1" d="M 143 61 Q 146 60 145 63 Q 142 64 143 61 Z " /></svg>