<svg width="192" height="192" version="1.1" xmlns="http://www.w3.org/2000/svg" desc="Created with imagetracer.js version 1.2.6" ><path fill="rgb(231,210,208)" stroke="rgb(231,210,208)" stroke-width="1" opacity="1" d="M 85.5 34 L 86 36 L 83 35.5 L 85.5 34 Z " /><path fill="rgb(231,210,208)" stroke="rgb(231,210,208)" stroke-width="1" opacity="1" d="M 106.5 34 L 109 35.5 L 107.5 36 L 106.5 34 Z " /><path fill="rgb(231,210,208)" stroke="rgb(231,210,208)" stroke-width="1" opacity="1" d="M 81.5 36 L 80.5 38 L 81.5 36 Z " /><path fill="rgb(231,210,208)" stroke="rgb(231,210,208)" stroke-width="1" opacity="1" d="M 110.5 36 L 111.5 38 L 110.5 36 Z " /><path fill="rgb(231,210,208)" stroke="rgb(231,210,208)" stroke-width="1" opacity="1" d="M 85.5 39 L 86.5 40 L 105.5 40 L 107 39.5 L 105.5 41 L 86.5 41 L 85.5 39 Z " /><path fill="rgb(231,210,208)" stroke="rgb(231,210,208)" stroke-width="1" opacity="1" d="M 82.5 41 L 83 47.5 L 82 47.5 L 82.5 41 Z " /><path fill="rgb(231,210,208)" stroke="rgb(231,210,208)" stroke-width="1" opacity="1" d="M 109.5 41 L 110 47.5 L 109 47.5 L 109.5 41 Z " /><path fill="rgb(231,210,208)" stroke="rgb(231,210,208)" stroke-width="1" opacity="1" d="M 79.5 77 L 80 89 L 90 89.5 L 79 90 L 79.5 77 Z " /><path fill="rgb(231,210,208)" stroke="rgb(231,210,208)" stroke-width="1" opacity="1" d="M 112.5 77 L 113 88.5 L 111.5 90 L 102.5 90 L 102.5 89 L 112 89 L 112.5 77 Z " /><path fill="rgb(231,210,208)" stroke="rgb(231,210,208)" stroke-width="1" opacity="1" d="M 49.5 119 L 143 119.5 L 49.5 120 L 49.5 119 Z " /><path fill="rgb(231,210,208)" stroke="rgb(231,210,208)" stroke-width="1" opacity="1" d="M 46.5 127 L 48 127.5 L 45.5 129 L 46.5 127 Z " /><path fill="rgb(231,210,208)" stroke="rgb(231,210,208)" stroke-width="1" opacity="1" d="M 61.5 127 L 64 128.5 L 62.5 128 L 61.5 127 Z " /><path fill="rgb(231,210,208)" stroke="rgb(231,210,208)" stroke-width="1" opacity="1" d="M 122.5 127 L 123 148.5 L 122 148.5 L 122.5 127 Z " /><path fill="rgb(231,210,208)" stroke="rgb(231,210,208)" stroke-width="1" opacity="1" d="M 66.5 131 L 67 140.5 L 66 140.5 L 66.5 131 Z " /><path fill="rgb(231,210,208)" stroke="rgb(231,210,208)" stroke-width="1" opacity="1" d="M 70.5 131 L 71 132.5 L 70 133.5 L 69.5 143 L 69 133.5 L 70.5 131 Z " /><path fill="rgb(231,210,208)" stroke="rgb(231,210,208)" stroke-width="1" opacity="1" d="M 127.5 131 L 130 131.5 L 127.5 132 L 127.5 131 Z " /><path fill="rgb(231,210,208)" stroke="rgb(231,210,208)" stroke-width="1" opacity="1" d="M 97.5 133 L 102 133.5 L 97.5 134 L 97.5 133 Z " /><path fill="rgb(231,210,208)" stroke="rgb(231,210,208)" stroke-width="1" opacity="1" d="M 112.5 133 L 117 133.5 L 112.5 134 L 112.5 133 Z " /><path fill="rgb(231,210,208)" stroke="rgb(231,210,208)" stroke-width="1" opacity="1" d="M 138.5 133 L 144 133.5 L 138.5 134 L 138.5 133 Z " /><path fill="rgb(231,210,208)" stroke="rgb(231,210,208)" stroke-width="1" opacity="1" d="M 94.5 134 L 93.5 136 L 94.5 134 Z " /><path fill="rgb(231,210,208)" stroke="rgb(231,210,208)" stroke-width="1" opacity="1" d="M 110.5 134 L 109.5 136 L 110.5 134 Z " /><path fill="rgb(231,210,208)" stroke="rgb(231,210,208)" stroke-width="1" opacity="1" d="M 126.5 134 L 127 149.5 L 126 149.5 L 126.5 134 Z " /><path fill="rgb(231,210,208)" stroke="rgb(231,210,208)" stroke-width="1" opacity="1" d="M 98.5 136 L 101 136.5 L 98.5 137 L 98.5 136 Z " /><path fill="rgb(231,210,208)" stroke="rgb(231,210,208)" stroke-width="1" opacity="1" d="M 140.5 136 L 144 136.5 L 140.5 137 L 140.5 136 Z " /><path fill="rgb(231,210,208)" stroke="rgb(231,210,208)" stroke-width="1" opacity="1" d="M 95.5 139 L 102 140.5 L 95 141 L 95.5 139 Z " /><path fill="rgb(231,210,208)" stroke="rgb(231,210,208)" stroke-width="1" opacity="1" d="M 76.5 141 L 78 143.5 L 76 142.5 L 76.5 141 Z " /><path fill="rgb(231,210,208)" stroke="rgb(231,210,208)" stroke-width="1" opacity="1" d="M 88.5 141 L 89 148.5 L 86.5 150 Q 83.8 148.8 85 143.5 L 86 143.5 Q 84 150.4 88 149 L 88.5 141 Z " /><path fill="rgb(231,210,208)" stroke="rgb(231,210,208)" stroke-width="1" opacity="1" d="M 105.5 141 L 104.5 143 L 105.5 141 Z " /><path fill="rgb(231,210,208)" stroke="rgb(231,210,208)" stroke-width="1" opacity="1" d="M 95.5 143 L 103 143.5 L 95.5 144 L 95.5 143 Z " /><path fill="rgb(231,210,208)" stroke="rgb(231,210,208)" stroke-width="1" opacity="1" d="M 137.5 145 L 138.5 147 L 137.5 145 Z " /><path fill="rgb(231,210,208)" stroke="rgb(231,210,208)" stroke-width="1" opacity="1" d="M 104.5 146 L 106 148.5 L 104 149.5 L 105 147.5 L 104.5 146 Z " /><path fill="rgb(231,210,208)" stroke="rgb(231,210,208)" stroke-width="1" opacity="1" d="M 134.5 147 L 135.5 149 L 134.5 147 Z " /><path fill="rgb(231,210,208)" stroke="rgb(231,210,208)" stroke-width="1" opacity="1" d="M 66.5 149 L 69 149.5 L 66.5 150 L 66.5 149 Z " /><path fill="rgb(255,255,255)" stroke="rgb(255,255,255)" stroke-width="1" opacity="1" d="M 0 0 L 192 0 L 192 192 L 0 192 L 0 0 Z M 86 34 L 82 36 Q 77 39 79 48 L 49 48 L 46 49 L 45 52 L 45 117 L 50 120 L 143 120 L 147 117 L 147 52 L 146 49 L 144 48 L 113 48 L 112 38 L 107 34 L 86 34 Z M 47 127 L 45 129 L 52 149 L 52 150 L 57 150 L 64 129 L 62 127 L 59 130 L 55 146 L 50 130 L 47 127 Z M 119 127 L 119 134 L 117 133 L 111 134 L 108 139 Q 106 148 112 150 Q 116 151 118 149 L 121 150 L 123 149 L 123 128 L 119 127 Z M 128 127 L 126 129 L 128 132 Q 132 133 130 129 L 128 127 Z M 67 128 L 66 132 L 66 150 L 69 150 L 71 133 L 74 146 Q 75 148 80 147 L 85 131 L 85 149 L 87 150 L 89 149 Q 91 142 88 141 L 88 128 L 82 128 L 78 143 L 73 131 L 73 128 L 67 128 Z M 98 133 L 95 134 L 92 138 Q 90 148 96 150 L 105 150 L 106 149 L 105 146 Q 103 149 98 147 L 96 144 L 105 143 Q 107 142 106 137 Q 104 132 98 133 Z M 139 133 L 137 134 L 133 139 L 134 148 L 138 150 L 146 150 L 146 147 Q 139 149 137 145 Q 135 138 139 137 L 146 137 L 146 134 Q 144 132 139 133 Z M 126 134 L 126 150 L 130 150 L 130 135 L 126 134 Z " /><path fill="rgb(255,255,255)" stroke="rgb(255,255,255)" stroke-width="1" opacity="1" d="M 84.5 39 L 86.5 41 L 105.5 41 Q 107.2 37.3 109 40.5 L 109 47.5 L 108.5 48 L 83 48 L 83 40.5 L 84.5 39 Z " /><path fill="rgb(255,255,255)" stroke="rgb(255,255,255)" stroke-width="1" opacity="1" d="M 90 67 L 102 67 L 102 77 L 112 77 L 112 89 L 102 89 L 102 100 L 90 100 L 90 89 L 80 89 L 80 77 L 90 77 L 90 67 Z " /><path fill="rgb(255,255,255)" stroke="rgb(255,255,255)" stroke-width="1" opacity="1" d="M 96 137 L 102 137 L 102 140 L 96 140 L 96 137 Z " /><path fill="rgb(255,255,255)" stroke="rgb(255,255,255)" stroke-width="1" opacity="1" d="M 113.5 137 L 119 137 L 119 144.5 L 113.5 147 Q 110.3 145.3 112 138.5 L 113.5 137 Z " /><path fill="rgb(159,100,105)" stroke="rgb(159,100,105)" stroke-width="1" opacity="1" d="M 82.5 36 Q 86.3 34.8 85 38.5 Q 80.2 40.5 82 48 L 78.5 49 L 49.5 49 L 49.5 48 L 78.5 48 L 79 47.5 L 79 40.5 L 82.5 36 Z " /><path fill="rgb(159,100,105)" stroke="rgb(159,100,105)" stroke-width="1" opacity="1" d="M 108.5 36 L 113 39.5 L 112.5 42 L 109.5 37 L 108.5 36 Z " /><path fill="rgb(159,100,105)" stroke="rgb(159,100,105)" stroke-width="1" opacity="1" d="M 107.5 38 L 109.5 41 L 107.5 38 Z " /><path fill="rgb(159,100,105)" stroke="rgb(159,100,105)" stroke-width="1" opacity="1" d="M 83.5 48 L 96 48.5 L 83.5 49 L 83.5 48 Z " /><path fill="rgb(159,100,105)" stroke="rgb(159,100,105)" stroke-width="1" opacity="1" d="M 90.5 66 L 101.5 66 L 103 67.5 L 102.5 77 L 102 67 L 90 67 L 90 76.5 L 89 76.5 L 89 67.5 L 90.5 66 Z " /><path fill="rgb(159,100,105)" stroke="rgb(159,100,105)" stroke-width="1" opacity="1" d="M 89.5 90 L 90 100 L 96 100.5 L 90.5 101 L 89 99.5 L 89.5 90 Z " /><path fill="rgb(159,100,105)" stroke="rgb(159,100,105)" stroke-width="1" opacity="1" d="M 102.5 90 L 103 99.5 L 102 99.5 L 102.5 90 Z " /><path fill="rgb(159,100,105)" stroke="rgb(159,100,105)" stroke-width="1" opacity="1" d="M 145.5 117 L 144.5 119 L 145.5 117 Z " /><path fill="rgb(159,100,105)" stroke="rgb(159,100,105)" stroke-width="1" opacity="1" d="M 120.5 127 L 122 127.5 L 120 128 L 120 134.5 L 118.5 135 L 119 133.5 Q 117.8 128.3 120.5 127 Z " /><path fill="rgb(159,100,105)" stroke="rgb(159,100,105)" stroke-width="1" opacity="1" d="M 126.5 128 L 127 130.5 L 126 130.5 L 126.5 128 Z " /><path fill="rgb(159,100,105)" stroke="rgb(159,100,105)" stroke-width="1" opacity="1" d="M 129.5 128 L 130 130.5 L 129 130.5 L 129.5 128 Z " /><path fill="rgb(159,100,105)" stroke="rgb(159,100,105)" stroke-width="1" opacity="1" d="M 87.5 129 L 88 132.5 L 87 132.5 L 87.5 129 Z " /><path fill="rgb(159,100,105)" stroke="rgb(159,100,105)" stroke-width="1" opacity="1" d="M 69.5 130 L 70 132.5 L 69 132.5 L 69.5 130 Z " /><path fill="rgb(159,100,105)" stroke="rgb(159,100,105)" stroke-width="1" opacity="1" d="M 103.5 134 L 104.5 136 L 103.5 134 Z " /><path fill="rgb(159,100,105)" stroke="rgb(159,100,105)" stroke-width="1" opacity="1" d="M 129.5 134 L 130 148.5 L 127.5 150 L 127.5 149 L 129 148.5 L 129.5 134 Z " /><path fill="rgb(159,100,105)" stroke="rgb(159,100,105)" stroke-width="1" opacity="1" d="M 145.5 134 L 146 135.5 L 144 136.5 L 145.5 134 Z " /><path fill="rgb(159,100,105)" stroke="rgb(159,100,105)" stroke-width="1" opacity="1" d="M 101.5 136 L 102.5 138 L 101.5 136 Z " /><path fill="rgb(159,100,105)" stroke="rgb(159,100,105)" stroke-width="1" opacity="1" d="M 138.5 136 L 140 136.5 L 137.5 138 L 138.5 136 Z " /><path fill="rgb(159,100,105)" stroke="rgb(159,100,105)" stroke-width="1" opacity="1" d="M 85.5 137 L 86 142.5 L 85 142.5 L 85.5 137 Z " /><path fill="rgb(159,100,105)" stroke="rgb(159,100,105)" stroke-width="1" opacity="1" d="M 105.5 137 L 106 140.5 L 105 140.5 L 105.5 137 Z " /><path fill="rgb(159,100,105)" stroke="rgb(159,100,105)" stroke-width="1" opacity="1" d="M 119.5 137 L 120 144.5 L 119 144.5 L 119.5 137 Z " /><path fill="rgb(159,100,105)" stroke="rgb(159,100,105)" stroke-width="1" opacity="1" d="M 111.5 139 L 112 144.5 L 111 144.5 L 111.5 139 Z " /><path fill="rgb(159,100,105)" stroke="rgb(159,100,105)" stroke-width="1" opacity="1" d="M 136.5 139 L 137 143.5 L 136 143.5 L 136.5 139 Z " /><path fill="rgb(159,100,105)" stroke="rgb(159,100,105)" stroke-width="1" opacity="1" d="M 108.5 140 L 109 143.5 L 108 143.5 L 108.5 140 Z " /><path fill="rgb(159,100,105)" stroke="rgb(159,100,105)" stroke-width="1" opacity="1" d="M 133.5 140 L 134 143.5 L 133 143.5 L 133.5 140 Z " /><path fill="rgb(159,100,105)" stroke="rgb(159,100,105)" stroke-width="1" opacity="1" d="M 66.5 141 L 67 146.5 L 66 146.5 L 66.5 141 Z " /><path fill="rgb(159,100,105)" stroke="rgb(159,100,105)" stroke-width="1" opacity="1" d="M 76.5 143 L 77.5 145 L 76.5 143 Z " /><path fill="rgb(159,100,105)" stroke="rgb(159,100,105)" stroke-width="1" opacity="1" d="M 93.5 147 L 94.5 149 L 93.5 147 Z " /><path fill="rgb(159,100,105)" stroke="rgb(159,100,105)" stroke-width="1" opacity="1" d="M 53.5 149 L 56 149.5 L 53.5 150 L 53.5 149 Z " /><path fill="rgb(159,100,105)" stroke="rgb(159,100,105)" stroke-width="1" opacity="1" d="M 96.5 149 L 104 149.5 L 96.5 150 L 96.5 149 Z " /><path fill="rgb(159,100,105)" stroke="rgb(159,100,105)" stroke-width="1" opacity="1" d="M 112.5 149 L 116 149.5 L 112.5 150 L 112.5 149 Z " /><path fill="rgb(159,100,105)" stroke="rgb(159,100,105)" stroke-width="1" opacity="1" d="M 138.5 149 L 145 149.5 L 138.5 150 L 138.5 149 Z " /><path fill="rgb(7,6,6)" stroke="rgb(7,6,6)" stroke-width="1" opacity="1" d="M 107.5 36 L 112 39.5 L 113 48 L 110 48 L 110 40.5 Q 105.8 39.3 107.5 36 Z " /><path fill="rgb(7,6,6)" stroke="rgb(7,6,6)" stroke-width="1" opacity="1" d="M 46 128 Q 50.5 126.3 49 131.5 L 54.5 147 Q 59 138.7 60 128 Q 63.7 126.5 63 129.5 L 57 149 L 52 149 L 52 146.5 L 46 128 Z " /><path fill="rgb(7,6,6)" stroke="rgb(7,6,6)" stroke-width="1" opacity="1" d="M 120 128 L 122 128.5 L 122 149 Q 119.3 150.1 120 147.5 L 117.5 149 Q 111.5 150.5 110 147.5 Q 107.7 144.3 109 137.5 L 110 135 Q 112.1 133.4 117.5 134 L 120 135 L 120 128 Z M 114 136 L 111 140 Q 110 144 112 146 Q 111 148 118 147 L 120 145 L 120 137 L 114 136 Z " /><path fill="rgb(7,6,6)" stroke="rgb(7,6,6)" stroke-width="1" opacity="1" d="M 127 128 Q 130.3 126.9 129 131 Q 125.7 132.1 127 128 Z " /><path fill="rgb(7,6,6)" stroke="rgb(7,6,6)" stroke-width="1" opacity="1" d="M 96.5 134 Q 103.5 132.5 105 136.5 Q 106.3 141.8 103.5 143 L 95.5 143 L 95 145.5 L 100.5 148 L 105 147 L 104.5 149 L 95.5 149 Q 91.6 146.9 92 140.5 L 94.5 135 L 96.5 134 Z M 98 136 Q 94 137 95 141 L 103 141 L 103 138 Q 102 135 98 136 Z " /><path fill="rgb(7,6,6)" stroke="rgb(7,6,6)" stroke-width="1" opacity="1" d="M 127 134 L 129 134.5 L 129 149 L 127 148.5 L 127 134 Z " /><path fill="rgb(7,6,6)" stroke="rgb(7,6,6)" stroke-width="1" opacity="1" d="M 137.5 134 L 144.5 134 L 145 136 L 138.5 136 L 137 137.5 L 136 143.5 L 138.5 147 L 141.5 148 L 144.5 147 L 145.5 149 L 136.5 149 L 135 147.5 Q 132.7 144.3 134 137.5 L 137.5 134 Z " /><path fill="rgb(212,64,57)" stroke="rgb(212,64,57)" stroke-width="1" opacity="1" d="M 86 34 L 105.5 34 L 107 35.5 Q 107.8 39.3 105.5 40 L 86.5 40 L 85 38.5 L 86 34 Z " /><path fill="rgb(212,64,57)" stroke="rgb(212,64,57)" stroke-width="1" opacity="1" d="M 79.5 48 L 95.5 49 L 96.5 48 L 109.5 48 L 109.5 49 L 96 49 L 96 66 L 90.5 66 L 89 67.5 L 89 77 L 79 77 L 79 90 L 89 90 L 89 99.5 Q 90.3 102.3 95.5 101 Q 96.8 98.8 101.5 100 L 101.5 101 Q 96.1 100.4 96 101.5 L 96 119 L 48.5 119 L 45 114.5 L 45 53.5 L 47.5 49 L 78.5 49 L 79.5 48 Z " /><path fill="rgb(212,64,57)" stroke="rgb(212,64,57)" stroke-width="1" opacity="1" d="M 113.5 48 L 142 48.5 L 113.5 49 L 113.5 48 Z " /><path fill="rgb(212,64,57)" stroke="rgb(212,64,57)" stroke-width="1" opacity="1" d="M 144.5 49 L 145.5 51 L 144.5 49 Z " /><path fill="rgb(212,64,57)" stroke="rgb(212,64,57)" stroke-width="1" opacity="1" d="M 85.5 133 L 86 136.5 L 85 136.5 L 85.5 133 Z " /><path fill="rgb(212,64,57)" stroke="rgb(212,64,57)" stroke-width="1" opacity="1" d="M 87.5 133 L 88 136.5 L 87 136.5 L 87.5 133 Z " /><path fill="rgb(212,64,57)" stroke="rgb(212,64,57)" stroke-width="1" opacity="1" d="M 79.5 145 L 78.5 147 L 76 146.5 L 79.5 145 Z " /><path fill="rgb(188,38,38)" stroke="rgb(188,38,38)" stroke-width="1" opacity="1" d="M 110.5 48 L 113.5 49 L 143.5 49 L 146 51.5 L 147 53.5 L 147 114.5 L 143.5 119 L 96 119 L 96 101 Q 101.4 102.5 103 99.5 L 103 90 L 113 90 L 113 77 L 103 77 L 103 66 L 96 66 L 96 49 L 109.5 49 L 110.5 48 Z " /><path fill="rgb(188,38,38)" stroke="rgb(188,38,38)" stroke-width="1" opacity="1" d="M 68.5 128 Q 73.3 126.3 72 130.5 L 77.5 145 L 83 128 L 87 128 L 87 136.5 L 88 137.5 L 88 149 L 86 148.5 L 86 133.5 L 84.5 130 L 78.5 146 Q 73.7 147.7 75 143.5 L 71 130 L 69 130.5 L 69 146.5 L 67.5 149 L 67 129.5 L 68.5 128 Z " /></svg>